# xmcd CD database file
# Generated: Sun May 25 00:21:05 2003 by KSCD
# 
# Track frame offsets:
#       150
#       7319
#       12626
#       19021
#       34807
#       42220
#       48941
#       51169
#       83439
#       106647
#       110710
#       127260
#       138063
#       143026
#       149199
#       165031
#       183248
#       187045
#       190414
#       216152
#       228292
#       239182
#       244641
#       248964
#       255151
#       258960
#       264652
#       270334
#       274166
#       285431
#       289184
#       298995
#       302066
#       305489
#       307256
#
# Disc length: 4412 seconds
#
# Revision: 3
# Processed by: cddbd v1.4PL0 Copyright (c) Steve Scherf et al.
# Submitted via: Kscd 1.3.3
#
DISCID=0d113a23
DTITLE=Martan Mann - Improvising Blues Piano
DYEAR=1900
DGENRE=
TTITLE0=Introduction
TTITLE1=Chapter 1: Music Theory
TTITLE2=Blues Form
TTITLE3=Soloing (Scales)
TTITLE4=Chapter 2: Boogie Woogie Style
TTITLE5=Boogie Woogie Example
TTITLE6=Practicing Boogie Woogie
TTITLE7=Boogie Woogie Exercises
TTITLE8="Stormy Monday"
TTITLE9=Chapter 3: Tritone Blues Style
TTITLE10=Tritone Blues Example
TTITLE11=Continuous Motion Exercises
TTITLE12=Chapter 4: Gospel Blues Style
TTITLE13=Chord Structures
TTITLE14=Examples and Development of "Amazing Grace"
TTITLE15="Amazing Grace"
TTITLE16=Chapter 5: Stride Blues Style
TTITLE17=Stride Discussion
TTITLE18=Stride Example
TTITLE19="Bye and Bye"
TTITLE20=Chapter 6: Funk Blues Style
TTITLE21="Santa Cruz Funk"
TTITLE22=Chapter 7: Rock Blues Style
TTITLE23=Rock Blues Example
TTITLE24=Chapter 8: Jazz Blues Style
TTITLE25=II V I Examples
TTITLE26=Jazz Blues Soloing
TTITLE27=Soloing Examples
TTITLE28=Improv and Comping Examples
TTITLE29=Development of "Blues for Clark"
TTITLE30="Blues for Clark"
TTITLE31=Chapter 9: Minor Blues Style
TTITLE32=Minor Blues Examples
TTITLE33=Development of "Formation"
TTITLE34="Formation"
EXTD=
EXTT0=
EXTT1=
EXTT2=
EXTT3=
EXTT4=
EXTT5=
EXTT6=
EXTT7=
EXTT8=
EXTT9=
EXTT10=
EXTT11=
EXTT12=
EXTT13=
EXTT14=
EXTT15=
EXTT16=
EXTT17=
EXTT18=
EXTT19=
EXTT20=
EXTT21=
EXTT22=
EXTT23=
EXTT24=
EXTT25=
EXTT26=
EXTT27=
EXTT28=
EXTT29=
EXTT30=
EXTT31=
EXTT32=
EXTT33=
EXTT34=
PLAYORDER=
